<svg xmlns="http://www.w3.org/2000/svg" width="940" height="560" viewBox="0 0 940 560" role="img" aria-labelledby="title desc">
<title id="title">GPU time breakdown sunburst</title>
<desc id="desc">Sunburst chart of rank0 step 162 GPU time categories. Legend uses abbreviated names and every visible segment has a percentage label.</desc>
<defs>
<filter id="shadow" x="-10%" y="-10%" width="120%" height="120%"><feDropShadow dx="0" dy="10" stdDeviation="14" flood-color="#8c959f" flood-opacity="0.16"/></filter>
<linearGradient id="panel" x1="0" y1="0" x2="1" y2="1"><stop offset="0" stop-color="#ffffff"/><stop offset="1" stop-color="#f6f8fa"/></linearGradient>
<style>text { font-family: "NVIDIA Sans", "Inter", ui-sans-serif, system-ui, -apple-system, "Segoe UI", sans-serif; }</style>
</defs>
<rect x="0" y="0" width="940" height="560" fill="url(#panel)"/>
<text x="44" y="54" fill="#24292f" font-size="25" font-weight="760">GPU time breakdown</text>
<text x="44" y="82" fill="#57606a" font-size="14">rank0 step 162, fastest selected GPU window</text>
<g filter="url(#shadow)">
<circle cx="284" cy="316" r="207" fill="#ffffff" opacity="1"/>
<circle cx="284" cy="316" r="205" fill="none" stroke="#d0d7de" stroke-width="1"/>
<circle cx="284" cy="316" r="140" fill="none" stroke="#d0d7de" stroke-width="1"/>
<circle cx="284" cy="316" r="64" fill="#ffffff" stroke="#d0d7de" stroke-width="1.2"/>
<path d="M 144.000 316.000 A 140.000 140.000 0 0 1 411.027 257.143 L 342.070 289.094 A 64.000 64.000 0 0 0 220.000 316.000 Z" fill="#2f6feb" stroke="#ffffff" stroke-width="3"/>
<text x="262.0" y="211.4" fill="#f8fafc" font-size="12.5" font-weight="760" text-anchor="middle" dominant-baseline="middle"><tspan x="262.0">HSTU</tspan><tspan x="262.0" dy="15" font-size="10.5" fill="#dbeafe">43.09%</tspan></text>
<path d="M 79.000 316.000 A 205.000 205.000 0 0 1 470.004 229.817 L 412.842 256.302 A 142.000 142.000 0 0 0 142.000 316.000 Z" fill="#2f6feb" opacity="0.72" stroke="#ffffff" stroke-width="3"/>
<path d="M 411.027 257.143 A 140.000 140.000 0 0 1 353.118 437.749 L 315.597 371.657 A 64.000 64.000 0 0 0 342.070 289.094 Z" fill="#2da44e" stroke="#ffffff" stroke-width="3"/>
<text x="381.1" y="342.1" fill="#f8fafc" font-size="12.5" font-weight="760" text-anchor="middle" dominant-baseline="middle"><tspan x="381.1">GEMM</tspan><tspan x="381.1" dy="15" font-size="10.5" fill="#dcfce7">23.69%</tspan></text>
<path d="M 470.004 229.817 A 205.000 205.000 0 0 1 442.412 446.118 L 393.729 406.131 A 142.000 142.000 0 0 0 412.842 256.302 Z" fill="#26a69a" stroke="#ffffff" stroke-width="3"/>
<text x="455.1" y="332.8" fill="#ecfeff" font-size="10.5" font-weight="720" text-anchor="middle" dominant-baseline="middle"><tspan x="455.1">UVQK</tspan><tspan x="455.1" dy="13" font-size="9.5" fill="#ccfbf1">17.85%</tspan></text>
<path d="M 442.412 446.118 A 205.000 205.000 0 0 1 396.579 487.321 L 361.982 434.671 A 142.000 142.000 0 0 0 393.729 406.131 Z" fill="#30a46c" stroke="#ffffff" stroke-width="3"/>
<text x="399.3" y="439.3" fill="#ecfeff" font-size="10.5" font-weight="720" text-anchor="middle" dominant-baseline="middle"><tspan x="399.3">PROJ</tspan><tspan x="399.3" dy="13" font-size="9.5" fill="#ccfbf1">4.80%</tspan></text>
<path d="M 396.579 487.321 A 205.000 205.000 0 0 1 385.208 494.275 L 354.105 439.488 A 142.000 142.000 0 0 0 361.982 434.671 Z" fill="#1f883d" stroke="#ffffff" stroke-width="3"/>
<path d="M 353.118 437.749 A 140.000 140.000 0 0 1 181.401 411.255 L 237.098 359.545 A 64.000 64.000 0 0 0 315.597 371.657 Z" fill="#f2cc60" stroke="#ffffff" stroke-width="3"/>
<text x="268.4" y="411.8" fill="#24292f" font-size="12.5" font-weight="760" text-anchor="middle" dominant-baseline="middle"><tspan x="268.4">ELEM</tspan><tspan x="268.4" dy="15" font-size="10.5" fill="#57606a">21.31%</tspan></text>
<path d="M 385.208 494.275 A 205.000 205.000 0 0 1 133.766 455.480 L 179.935 412.615 A 142.000 142.000 0 0 0 354.105 439.488 Z" fill="#f2cc60" opacity="0.76" stroke="#ffffff" stroke-width="3"/>
<path d="M 181.401 411.255 A 140.000 140.000 0 0 1 154.386 368.918 L 224.748 340.191 A 64.000 64.000 0 0 0 237.098 359.545 Z" fill="#a475f9" stroke="#ffffff" stroke-width="3"/>
<path d="M 133.766 455.480 A 205.000 205.000 0 0 1 94.209 393.487 L 152.535 369.674 A 142.000 142.000 0 0 0 179.935 412.615 Z" fill="#a475f9" opacity="0.72" stroke="#ffffff" stroke-width="3"/>
<path d="M 154.386 368.918 A 140.000 140.000 0 0 1 146.212 340.791 L 221.011 327.333 A 64.000 64.000 0 0 0 224.748 340.191 Z" fill="#8c959f" stroke="#ffffff" stroke-width="3"/>
<path d="M 94.209 393.487 A 205.000 205.000 0 0 1 82.240 352.301 L 144.244 341.145 A 142.000 142.000 0 0 0 152.535 369.674 Z" fill="#8c959f" opacity="0.72" stroke="#ffffff" stroke-width="3"/>
<path d="M 146.212 340.791 A 140.000 140.000 0 0 1 144.172 322.943 L 220.079 319.174 A 64.000 64.000 0 0 0 221.011 327.333 Z" fill="#fb8500" stroke="#ffffff" stroke-width="3"/>
<path d="M 82.240 352.301 A 205.000 205.000 0 0 1 79.637 332.142 L 142.441 327.182 A 142.000 142.000 0 0 0 144.244 341.145 Z" fill="#fb9f3a" stroke="#ffffff" stroke-width="3"/>
<path d="M 79.637 332.142 A 205.000 205.000 0 0 1 79.252 326.166 L 142.175 323.042 A 142.000 142.000 0 0 0 142.441 327.182 Z" fill="#e67700" stroke="#ffffff" stroke-width="3"/>
<path d="M 144.172 322.943 A 140.000 140.000 0 0 1 144.005 317.172 L 220.002 316.536 A 64.000 64.000 0 0 0 220.079 319.174 Z" fill="#6e7781" stroke="#ffffff" stroke-width="3"/>
<path d="M 79.252 326.166 A 205.000 205.000 0 0 1 79.007 317.716 L 142.005 317.189 A 142.000 142.000 0 0 0 142.175 323.042 Z" fill="#6e7781" opacity="0.72" stroke="#ffffff" stroke-width="3"/>
<path d="M 144.005 317.172 A 140.000 140.000 0 0 1 144.000 315.995 L 220.000 315.998 A 64.000 64.000 0 0 0 220.002 316.536 Z" fill="#cf222e" stroke="#ffffff" stroke-width="3"/>
<path d="M 79.007 317.716 A 205.000 205.000 0 0 1 79.000 315.993 L 142.000 315.995 A 142.000 142.000 0 0 0 142.005 317.189 Z" fill="#cf222e" opacity="0.72" stroke="#ffffff" stroke-width="3"/>
<path d="M 107.8 428.4 L 62.0 444.0" fill="none" stroke="#a475f9" stroke-width="1.4" stroke-opacity="0.9"/>
<circle cx="107.8" cy="428.4" r="3" fill="#a475f9" stroke="#ffffff" stroke-width="1"/>
<text x="48" y="440" fill="#24292f" font-size="10.5" font-weight="760" text-anchor="end">EMB</text>
<text x="48" y="454" fill="#57606a" font-size="9.5" font-weight="650" text-anchor="end">5.74%</text>
<path d="M 83.3 374.3 L 64.0 404.0" fill="none" stroke="#8c959f" stroke-width="1.4" stroke-opacity="0.9"/>
<circle cx="83.3" cy="374.3" r="3" fill="#8c959f" stroke="#ffffff" stroke-width="1"/>
<text x="50" y="400" fill="#24292f" font-size="10.5" font-weight="760" text-anchor="end">IDLE</text>
<text x="50" y="414" fill="#57606a" font-size="9.5" font-weight="650" text-anchor="end">3.34%</text>
<path d="M 80.6 342.2 L 66.0 369.0" fill="none" stroke="#fb9f3a" stroke-width="1.4" stroke-opacity="0.9"/>
<circle cx="80.6" cy="342.2" r="3" fill="#fb9f3a" stroke="#ffffff" stroke-width="1"/>
<text x="52" y="365" fill="#24292f" font-size="10.5" font-weight="760" text-anchor="end">N-E</text>
<text x="52" y="379" fill="#57606a" font-size="9.5" font-weight="650" text-anchor="end">1.58%</text>
<path d="M 79.4 329.2 L 66.0 341.0" fill="none" stroke="#e67700" stroke-width="1.4" stroke-opacity="0.9"/>
<circle cx="79.4" cy="329.2" r="3" fill="#e67700" stroke="#ffffff" stroke-width="1"/>
<text x="52" y="337" fill="#24292f" font-size="10.5" font-weight="760" text-anchor="end">N-O</text>
<text x="52" y="351" fill="#57606a" font-size="9.5" font-weight="650" text-anchor="end">0.46%</text>
<path d="M 75.1 322.1 L 86.0 313.0" fill="none" stroke="#6e7781" stroke-width="1.4" stroke-opacity="0.9"/>
<circle cx="75.1" cy="322.1" r="3" fill="#6e7781" stroke="#ffffff" stroke-width="1"/>
<text x="72" y="309" fill="#24292f" font-size="10.5" font-weight="760" text-anchor="end">OTH</text>
<text x="72" y="323" fill="#57606a" font-size="9.5" font-weight="650" text-anchor="end">0.66%</text>
<path d="M 75.0 316.9 L 86.0 286.0" fill="none" stroke="#cf222e" stroke-width="1.4" stroke-opacity="0.9"/>
<circle cx="75.0" cy="316.9" r="3" fill="#cf222e" stroke="#ffffff" stroke-width="1"/>
<text x="72" y="282" fill="#24292f" font-size="10.5" font-weight="760" text-anchor="end">OVL</text>
<text x="72" y="296" fill="#57606a" font-size="9.5" font-weight="650" text-anchor="end">0.13%</text>
<path d="M 393.0 494.3 L 491.0 504.0" fill="none" stroke="#1f883d" stroke-width="1.4" stroke-opacity="0.9"/>
<circle cx="393.0" cy="494.3" r="3" fill="#1f883d" stroke="#ffffff" stroke-width="1"/>
<text x="505" y="500" fill="#24292f" font-size="10.5" font-weight="760" text-anchor="start">G-O</text>
<text x="505" y="514" fill="#57606a" font-size="9.5" font-weight="650" text-anchor="start">1.04%</text>
<circle cx="284" cy="316" r="62" fill="#f6f8fa" stroke="#d0d7de" stroke-width="1.5"/>
<text x="284" y="304" fill="#57606a" font-size="15" font-weight="760" text-anchor="middle">GPU window</text>
<text x="284" y="333" fill="#24292f" font-size="21" font-weight="820" text-anchor="middle">185.407 ms</text>
</g>
<g>
<rect x="556" y="74" width="330" height="424" rx="18" fill="#ffffff" stroke="#d0d7de"/>
<text x="580" y="103" fill="#24292f" font-size="17" font-weight="760">Legend</text>
<text x="858" y="103" fill="#57606a" font-size="12" text-anchor="end">ms / window</text>
<rect x="580" y="120" width="10" height="10" rx="2.5" fill="#2f6feb"/>
<text x="598" y="129" fill="#24292f" font-size="11.5" font-weight="760">HSTU</text>
<text x="636" y="129" fill="#57606a" font-size="11" font-weight="620">hstu fwd/bwd</text>
<text x="858" y="129" fill="#57606a" font-size="10.5" text-anchor="end">79.900 ms · 43.09%</text>
<rect x="580" y="143" width="10" height="10" rx="2.5" fill="#2da44e"/>
<text x="598" y="152" fill="#24292f" font-size="11.5" font-weight="760">GEMM</text>
<text x="636" y="152" fill="#57606a" font-size="11" font-weight="620">gemm subtotal</text>
<text x="858" y="152" fill="#57606a" font-size="10.5" text-anchor="end">43.919 ms · 23.69%</text>
<rect x="580" y="166" width="10" height="10" rx="2.5" fill="#26a69a"/>
<text x="598" y="175" fill="#24292f" font-size="11.5" font-weight="760">UVQK</text>
<text x="636" y="175" fill="#57606a" font-size="11" font-weight="620">gemm / uvqk</text>
<text x="858" y="175" fill="#57606a" font-size="10.5" text-anchor="end">33.095 ms · 17.85%</text>
<rect x="580" y="189" width="10" height="10" rx="2.5" fill="#30a46c"/>
<text x="598" y="198" fill="#24292f" font-size="11.5" font-weight="760">PROJ</text>
<text x="636" y="198" fill="#57606a" font-size="11" font-weight="620">gemm / projection</text>
<text x="858" y="198" fill="#57606a" font-size="10.5" text-anchor="end">8.905 ms · 4.80%</text>
<rect x="580" y="212" width="10" height="10" rx="2.5" fill="#1f883d"/>
<text x="598" y="221" fill="#24292f" font-size="11.5" font-weight="760">G-O</text>
<text x="636" y="221" fill="#57606a" font-size="11" font-weight="620">gemm / others</text>
<text x="858" y="221" fill="#57606a" font-size="10.5" text-anchor="end">1.919 ms · 1.04%</text>
<rect x="580" y="235" width="10" height="10" rx="2.5" fill="#f2cc60"/>
<text x="598" y="244" fill="#24292f" font-size="11.5" font-weight="760">ELEM</text>
<text x="636" y="244" fill="#57606a" font-size="11" font-weight="620">elementwise</text>
<text x="858" y="244" fill="#57606a" font-size="10.5" text-anchor="end">39.507 ms · 21.31%</text>
<rect x="580" y="258" width="10" height="10" rx="2.5" fill="#a475f9"/>
<text x="598" y="267" fill="#24292f" font-size="11.5" font-weight="760">EMB</text>
<text x="636" y="267" fill="#57606a" font-size="11" font-weight="620">embedding op</text>
<text x="858" y="267" fill="#57606a" font-size="10.5" text-anchor="end">10.643 ms · 5.74%</text>
<rect x="580" y="281" width="10" height="10" rx="2.5" fill="#8c959f"/>
<text x="598" y="290" fill="#24292f" font-size="11.5" font-weight="760">IDLE</text>
<text x="636" y="290" fill="#57606a" font-size="11" font-weight="620">GPU idle</text>
<text x="858" y="290" fill="#57606a" font-size="10.5" text-anchor="end">6.185 ms · 3.34%</text>
<rect x="580" y="304" width="10" height="10" rx="2.5" fill="#fb8500"/>
<text x="598" y="313" fill="#24292f" font-size="11.5" font-weight="760">NCCL</text>
<text x="636" y="313" fill="#57606a" font-size="11" font-weight="620">nccl subtotal</text>
<text x="858" y="313" fill="#57606a" font-size="10.5" text-anchor="end">3.789 ms · 2.04%</text>
<rect x="580" y="327" width="10" height="10" rx="2.5" fill="#fb9f3a"/>
<text x="598" y="336" fill="#24292f" font-size="11.5" font-weight="760">N-E</text>
<text x="636" y="336" fill="#57606a" font-size="11" font-weight="620">nccl(exposed)</text>
<text x="858" y="336" fill="#57606a" font-size="10.5" text-anchor="end">2.927 ms · 1.58%</text>
<rect x="580" y="350" width="10" height="10" rx="2.5" fill="#e67700"/>
<text x="598" y="359" fill="#24292f" font-size="11.5" font-weight="760">N-O</text>
<text x="636" y="359" fill="#57606a" font-size="11" font-weight="620">nccl(overlap)</text>
<text x="858" y="359" fill="#57606a" font-size="10.5" text-anchor="end">0.862 ms · 0.46%</text>
<rect x="580" y="373" width="10" height="10" rx="2.5" fill="#6e7781"/>
<text x="598" y="382" fill="#24292f" font-size="11.5" font-weight="760">OTH</text>
<text x="636" y="382" fill="#57606a" font-size="11" font-weight="620">others</text>
<text x="858" y="382" fill="#57606a" font-size="10.5" text-anchor="end">1.217 ms · 0.66%</text>
<rect x="580" y="396" width="10" height="10" rx="2.5" fill="#cf222e"/>
<text x="598" y="405" fill="#24292f" font-size="11.5" font-weight="760">OVL</text>
<text x="636" y="405" fill="#57606a" font-size="11" font-weight="620">overlapped</text>
<text x="858" y="405" fill="#57606a" font-size="10.5" text-anchor="end">0.248 ms · 0.13%</text>
<rect x="580" y="415" width="276" height="46" rx="12" fill="#f6f8fa" stroke="#d0d7de"/>
<text x="596" y="434" fill="#57606a" font-size="12" font-weight="720">Overlap total</text>
<text x="596" y="453" fill="#24292f" font-size="15" font-weight="800">1.110 ms · 0.59%</text>
</g>
</svg>
